<svg width="96" height="96" viewBox="0 0 96 96" fill="none" xmlns="http://www.w3.org/2000/svg">
  <rect width="96" height="96" rx="24" fill="#F7F1EA"/>
  <path d="M48 17C57.5 29.1 68.5 39.2 68.5 54.2C68.5 66.4 59.4 76 48 76C36.6 76 27.5 66.4 27.5 54.2C27.5 39.2 38.5 29.1 48 17Z" fill="#6F8B7A"/>
  <path d="M48 34C54.6 42.4 62.2 49.4 62.2 59.8C62.2 68.3 55.8 75 48 75C40.2 75 33.8 68.3 33.8 59.8C33.8 49.4 41.4 42.4 48 34Z" fill="#F3C8B6"/>
  <path d="M25 76C35.5 67.6 60.5 67.6 71 76" stroke="#26332D" stroke-width="4" stroke-linecap="round"/>
</svg>
